<svg width="30" height="30" viewBox="0 0 30 30" fill="none" xmlns="http://www.w3.org/2000/svg">
<path d="M13.8924 19.5984C12.1482 19.4164 10.5754 18.9869 9.22894 17.9337C9.06187 17.8027 8.88937 17.6764 8.73691 17.5301C8.14755 16.9641 8.08817 16.3158 8.55451 15.6477C8.95347 15.076 9.62318 14.9231 10.3193 15.2514C10.4541 15.315 10.5825 15.3944 10.7055 15.4797C13.2149 17.2039 16.6623 17.2515 19.1811 15.5572C19.4307 15.3659 19.6974 15.2099 20.0066 15.1302C20.6077 14.9759 21.1683 15.1967 21.4909 15.7227C21.8595 16.3233 21.8548 16.9096 21.4007 17.376C20.7041 18.0909 19.8664 18.6082 18.9356 18.9692C18.0554 19.3104 17.0914 19.4822 16.1372 19.5963C16.2812 19.753 16.3491 19.83 16.4391 19.9205C17.7347 21.2222 19.0359 22.5185 20.3273 23.8243C20.7673 24.2692 20.8592 24.8208 20.6169 25.3383C20.352 25.9039 19.7592 26.2759 19.1778 26.2361C18.8095 26.2107 18.5222 26.0273 18.267 25.7702C17.2893 24.7864 16.2932 23.8207 15.3353 22.8183C15.0565 22.5268 14.9225 22.5819 14.6764 22.835C13.6928 23.8476 12.6932 24.8446 11.6877 25.836C11.2362 26.2811 10.6989 26.3612 10.1753 26.107C9.61871 25.8372 9.26453 25.269 9.29186 24.698C9.31071 24.3118 9.50065 24.0168 9.76575 23.7521C11.0479 22.4719 12.3265 21.1883 13.6056 19.9059C13.6902 19.8206 13.7692 19.7301 13.8924 19.5984Z" fill="#7E7F85"/>
<path d="M14.955 15.1387C11.8432 15.1281 9.29162 12.5485 9.30977 9.43176C9.32768 6.28066 11.8809 3.7413 15.0233 3.75002C18.172 3.75851 20.6994 6.33439 20.6836 9.51825C20.6676 12.6286 18.0983 15.1496 14.955 15.1387ZM17.783 9.4393C17.7776 7.89179 16.5451 6.65982 15.0007 6.65841C13.4433 6.65676 12.1998 7.91112 12.2118 9.47277C12.2233 11.0144 13.4664 12.2376 15.0151 12.232C16.559 12.2266 17.7882 10.9866 17.783 9.4393Z" fill="#7E7F85"/>
</svg>
