<svg width="45" height="45" viewBox="0 0 45 45" fill="none" xmlns="http://www.w3.org/2000/svg">
<path d="M16.7821 38.7134C11.5744 37.4918 7.5082 33.4256 6.28664 28.2179C5.40445 24.457 5.40445 20.543 6.28664 16.7821C7.5082 11.5744 11.5744 7.5082 16.7821 6.28664C20.543 5.40445 24.457 5.40445 28.2179 6.28664C33.4256 7.50819 37.4918 11.5744 38.7134 16.7821C39.5955 20.543 39.5955 24.457 38.7134 28.2179C37.4918 33.4256 33.4256 37.4918 28.2179 38.7134C24.457 39.5955 20.543 39.5955 16.7821 38.7134Z" stroke="#C4C6CC" stroke-width="2.8125"/>
<circle cx="22.5" cy="29.0625" r="1.875" fill="#760135"/>
<path d="M18.75 18.75V17.8125C18.75 15.7414 20.4289 14.0625 22.5 14.0625V14.0625V14.0625C24.5711 14.0625 26.25 15.7414 26.25 17.8125V18.04C26.25 19.0949 25.8309 20.1066 25.085 20.8525L22.5 23.4375" stroke="#760135" stroke-width="2.8125" stroke-linecap="round" stroke-linejoin="round"/>
</svg>
