<svg width="30" height="30" viewBox="0 0 30 30" fill="none" xmlns="http://www.w3.org/2000/svg">
<path d="M6.55686 14.6999L10.5802 16.174L12.1486 21.1324C12.2168 21.4675 12.626 21.5345 12.8987 21.3335L15.149 19.5243C15.3536 19.3233 15.6946 19.3233 15.9674 19.5243L19.9907 22.4056C20.2634 22.6066 20.6726 22.4726 20.7408 22.1375L23.7412 8.0663C23.8094 7.73127 23.4685 7.39624 23.1275 7.53026L6.55686 13.8288C6.14771 13.9628 6.14771 14.5659 6.55686 14.6999ZM11.944 15.4369L19.8543 10.6795C19.9907 10.6125 20.1271 10.8135 19.9907 10.8805L13.5124 16.8441C13.3079 17.0451 13.1033 17.3131 13.1033 17.6481L12.8987 19.2563C12.8987 19.4573 12.5578 19.5243 12.4896 19.2563L11.6713 16.308C11.4667 15.973 11.6031 15.571 11.944 15.4369Z" fill="#7E7F85"/>
</svg>
