<svg width="30" height="30" viewBox="0 0 30 30" fill="none" xmlns="http://www.w3.org/2000/svg">
<path d="M15.7815 21.25C9.80247 21.25 6.3921 16.5578 6.25 8.75H9.245C9.34338 14.4807 11.5514 16.9082 13.3003 17.4087V8.75H16.1204V13.6924C17.8474 13.4797 19.6619 11.2275 20.274 8.75H23.0942C22.8635 10.0349 22.4037 11.2515 21.7435 12.3237C21.0834 13.3958 20.2371 14.3006 19.2575 14.9812C20.3509 15.6032 21.3167 16.4835 22.0911 17.5641C22.8655 18.6446 23.4309 19.9009 23.75 21.25H20.6457C20.3592 20.0782 19.777 19.0293 18.972 18.2347C18.167 17.44 17.175 16.9351 16.1204 16.783V21.25H15.7815Z" fill="#7E7F85"/>
</svg>
