<svg width="30" height="30" viewBox="0 0 30 30" fill="none" xmlns="http://www.w3.org/2000/svg">
<path fill-rule="evenodd" clip-rule="evenodd" d="M25 8.17493C24.263 8.50023 23.4723 8.72107 22.6428 8.81956C23.4902 8.31221 24.1407 7.50643 24.445 6.54844C23.6514 7.01997 22.7741 7.36019 21.8402 7.54523C21.0913 6.74839 20.0261 6.25 18.8445 6.25C16.5799 6.25 14.7419 8.08838 14.7419 10.3535C14.7419 10.6758 14.7777 10.9892 14.8493 11.2876C11.4389 11.1175 8.41638 9.48209 6.39341 6.99908C6.04132 7.60491 5.83843 8.30923 5.83843 9.06129C5.83843 10.4848 6.56348 11.7413 7.66448 12.4754C6.99314 12.4545 6.36058 12.2695 5.80561 11.9621C5.80561 11.98 5.80561 11.9949 5.80561 12.0129C5.80561 14.0005 7.2199 15.6598 9.09667 16.0358C8.75354 16.1283 8.38953 16.1791 8.01656 16.1791C7.75101 16.1791 7.49441 16.1522 7.24377 16.1045C7.76593 17.7339 9.28166 18.9217 11.0749 18.9545C9.66955 20.0558 7.90318 20.7124 5.97867 20.7124C5.64747 20.7124 5.32224 20.6915 5 20.6556C6.81411 21.8196 8.97136 22.5 11.2897 22.5C18.8356 22.5 22.9621 16.2477 22.9621 10.8251C22.9621 10.646 22.9591 10.4699 22.9502 10.2938C23.7528 9.71488 24.448 8.99265 24.997 8.16896L25 8.17493Z" fill="#7E7F85"/>
</svg>
